<mxfile host="Electron" modified="2024-02-22T13:26:05.376Z" agent="Mozilla/5.0 (Macintosh; Intel Mac OS X 10_15_7) AppleWebKit/537.36 (KHTML, like Gecko) draw.io/23.1.5 Chrome/120.0.6099.109 Electron/28.1.0 Safari/537.36" etag="z46c_EZtg2VEOcl6ZCMr" version="23.1.5" type="device">
  <diagram name="Page-1" id="lS4-UMWoGOBkaAkWKf9Y">
    <mxGraphModel dx="1114" dy="807" grid="1" gridSize="10" guides="1" tooltips="1" connect="1" arrows="1" fold="1" page="1" pageScale="1" pageWidth="827" pageHeight="1169" math="0" shadow="0">
      <root>
        <mxCell id="0" />
        <mxCell id="1" parent="0" />
      </root>
    </mxGraphModel>
  </diagram>
</mxfile>
